# MagicaVoxel @ ephtracy

# material
mtllib Bow.mtl
usemtl palette

# normals
vn -1 0 0
vn 1 0 0
vn 0 0 1
vn 0 0 -1
vn 0 -1 0
vn 0 1 0

# texcoords
vt 0.970703 0.5
vt 0.978516 0.5
vt 0.982422 0.5
vt 0.986328 0.5
vt 0.990234 0.5

# verts
v -5 0 -0
v -5 0 -1
v -5 1 -0
v -5 1 -1
v -5 22 -0
v -5 22 -1
v -5 23 -0
v -5 23 -1
v -3 1 -0
v -3 1 -1
v -3 2 -0
v -3 2 -1
v -3 4 -0
v -3 4 -1
v -3 19 -0
v -3 19 -1
v -3 21 -0
v -3 21 -1
v -3 22 -0
v -3 22 -1
v -2 4 -0
v -2 4 -1
v -2 5 -0
v -2 5 -1
v -2 6 -0
v -2 6 -1
v -2 11 1
v -2 11 -0
v -2 12 1
v -2 12 -0
v -2 17 -0
v -2 17 -1
v -2 18 -0
v -2 18 -1
v -2 19 -0
v -2 19 -1
v -1 7 1
v -1 7 -1
v -1 8 1
v -1 8 -0
v -1 9 1
v -1 9 -0
v -1 11 2
v -1 11 1
v -1 11 -0
v -1 11 -1
v -1 12 2
v -1 12 1
v -1 12 -0
v -1 12 -1
v -1 14 1
v -1 14 -0
v -1 15 1
v -1 15 -0
v -1 16 1
v -1 16 -1
v 0 6 -0
v 0 6 -1
v 0 7 -0
v 0 7 -1
v 0 11 -0
v 0 11 -1
v 0 12 -0
v 0 12 -1
v 0 16 -0
v 0 16 -1
v 0 17 -0
v 0 17 -1
v -3 0 -0
v -3 0 -1
v -3 1 -0
v -3 1 -1
v -3 22 -0
v -3 22 -1
v -3 23 -0
v -3 23 -1
v -2 1 -0
v -2 1 -1
v -2 2 -0
v -2 2 -1
v -2 4 -0
v -2 4 -1
v -2 19 -0
v -2 19 -1
v -2 21 -0
v -2 21 -1
v -2 22 -0
v -2 22 -1
v -1 4 -0
v -1 4 -1
v -1 5 -0
v -1 5 -1
v -1 18 -0
v -1 18 -1
v -1 19 -0
v -1 19 -1
v 0 7 1
v 0 7 -0
v 0 8 1
v 0 8 -0
v 0 8 -1
v 0 9 1
v 0 9 -0
v 0 10 1
v 0 10 -1
v 0 13 1
v 0 13 -1
v 0 14 1
v 0 14 -0
v 0 15 1
v 0 15 -0
v 0 15 -1
v 0 16 1
v 0 16 -0
v 1 7 -0
v 1 7 -1
v 1 8 -0
v 1 8 -1
v 1 10 1
v 1 10 -1
v 1 11 1
v 1 11 -0
v 1 12 1
v 1 12 -0
v 1 13 1
v 1 13 -1
v 1 15 -0
v 1 15 -1
v 1 16 -0
v 1 16 -1
v 2 6 -0
v 2 6 -1
v 2 7 -0
v 2 7 -1
v 2 16 -0
v 2 16 -1
v 2 17 -0
v 2 17 -1
v 3 5 -0
v 3 5 -1
v 3 6 -0
v 3 6 -1
v 3 11 1
v 3 11 -0
v 3 12 1
v 3 12 -0
v 3 17 -0
v 3 17 -1
v 3 18 -0
v 3 18 -1
v 4 11 2
v 4 11 1
v 4 12 2
v 4 12 1
v -1 11 2
v -1 12 2
v 4 11 2
v 4 12 2
v -2 11 1
v -2 12 1
v -1 7 1
v -1 8 1
v -1 9 1
v -1 11 1
v -1 12 1
v -1 14 1
v -1 15 1
v -1 16 1
v 0 7 1
v 0 8 1
v 0 9 1
v 0 10 1
v 0 13 1
v 0 14 1
v 0 15 1
v 0 16 1
v 1 10 1
v 1 11 1
v 1 12 1
v 1 13 1
v -5 0 -0
v -5 1 -0
v -5 22 -0
v -5 23 -0
v -3 0 -0
v -3 1 -0
v -3 2 -0
v -3 4 -0
v -3 19 -0
v -3 21 -0
v -3 22 -0
v -3 23 -0
v -2 1 -0
v -2 2 -0
v -2 4 -0
v -2 5 -0
v -2 6 -0
v -2 17 -0
v -2 18 -0
v -2 19 -0
v -2 21 -0
v -2 22 -0
v -1 4 -0
v -1 5 -0
v -1 8 -0
v -1 9 -0
v -1 14 -0
v -1 15 -0
v -1 18 -0
v -1 19 -0
v 0 6 -0
v 0 7 -0
v 0 8 -0
v 0 9 -0
v 0 14 -0
v 0 15 -0
v 0 16 -0
v 0 17 -0
v 1 5 -0
v 1 6 -0
v 1 7 -0
v 1 8 -0
v 1 15 -0
v 1 16 -0
v 1 17 -0
v 1 18 -0
v 2 6 -0
v 2 7 -0
v 2 16 -0
v 2 17 -0
v 3 5 -0
v 3 6 -0
v 3 17 -0
v 3 18 -0
v 3 11 1
v 3 12 1
v 4 11 1
v 4 12 1
v -2 11 -0
v -2 12 -0
v -1 11 -0
v -1 12 -0
v 0 11 -0
v 0 12 -0
v 1 11 -0
v 1 12 -0
v 3 11 -0
v 3 12 -0
v -5 0 -1
v -5 1 -1
v -5 22 -1
v -5 23 -1
v -3 0 -1
v -3 1 -1
v -3 2 -1
v -3 4 -1
v -3 19 -1
v -3 21 -1
v -3 22 -1
v -3 23 -1
v -2 1 -1
v -2 2 -1
v -2 4 -1
v -2 5 -1
v -2 6 -1
v -2 17 -1
v -2 18 -1
v -2 19 -1
v -2 21 -1
v -2 22 -1
v -1 4 -1
v -1 5 -1
v -1 7 -1
v -1 11 -1
v -1 12 -1
v -1 16 -1
v -1 18 -1
v -1 19 -1
v 0 6 -1
v 0 7 -1
v 0 8 -1
v 0 10 -1
v 0 11 -1
v 0 12 -1
v 0 13 -1
v 0 15 -1
v 0 16 -1
v 0 17 -1
v 1 5 -1
v 1 6 -1
v 1 7 -1
v 1 8 -1
v 1 10 -1
v 1 13 -1
v 1 15 -1
v 1 16 -1
v 1 17 -1
v 1 18 -1
v 2 6 -1
v 2 7 -1
v 2 16 -1
v 2 17 -1
v 3 5 -1
v 3 6 -1
v 3 17 -1
v 3 18 -1
v -5 0 -0
v -3 0 -0
v -5 0 -1
v -3 0 -1
v -3 1 -0
v -2 1 -0
v -3 1 -1
v -2 1 -1
v -2 4 -0
v -1 4 -0
v -2 4 -1
v -1 4 -1
v -1 5 -0
v 1 5 -0
v 3 5 -0
v -1 5 -1
v 1 5 -1
v 3 5 -1
v -1 7 1
v 0 7 1
v 0 7 -0
v -1 7 -1
v 0 7 -1
v -1 9 1
v 0 9 1
v -1 9 -0
v 0 9 -0
v 0 10 1
v 1 10 1
v 0 10 -1
v 1 10 -1
v -1 11 2
v 4 11 2
v -2 11 1
v -1 11 1
v 1 11 1
v 3 11 1
v 4 11 1
v -2 11 -0
v -1 11 -0
v 1 11 -0
v 3 11 -0
v -1 12 -0
v 0 12 -0
v -1 12 -1
v 0 12 -1
v -1 15 1
v 0 15 1
v -1 15 -0
v 0 15 -0
v 1 15 -0
v 0 15 -1
v 1 15 -1
v 1 16 -0
v 2 16 -0
v 1 16 -1
v 2 16 -1
v -2 17 -0
v 0 17 -0
v 2 17 -0
v 3 17 -0
v -2 17 -1
v 0 17 -1
v 2 17 -1
v 3 17 -1
v -3 19 -0
v -2 19 -0
v -3 19 -1
v -2 19 -1
v -5 22 -0
v -3 22 -0
v -5 22 -1
v -3 22 -1
v -5 1 -0
v -3 1 -0
v -5 1 -1
v -3 1 -1
v -3 4 -0
v -2 4 -0
v -3 4 -1
v -2 4 -1
v -2 6 -0
v 0 6 -0
v 2 6 -0
v 3 6 -0
v -2 6 -1
v 0 6 -1
v 2 6 -1
v 3 6 -1
v 1 7 -0
v 2 7 -0
v 1 7 -1
v 2 7 -1
v -1 8 1
v 0 8 1
v -1 8 -0
v 0 8 -0
v 1 8 -0
v 0 8 -1
v 1 8 -1
v -1 11 -0
v 0 11 -0
v -1 11 -1
v 0 11 -1
v -1 12 2
v 4 12 2
v -2 12 1
v -1 12 1
v 1 12 1
v 3 12 1
v 4 12 1
v -2 12 -0
v -1 12 -0
v 1 12 -0
v 3 12 -0
v 0 13 1
v 1 13 1
v 0 13 -1
v 1 13 -1
v -1 14 1
v 0 14 1
v -1 14 -0
v 0 14 -0
v -1 16 1
v 0 16 1
v 0 16 -0
v -1 16 -1
v 0 16 -1
v -1 18 -0
v 1 18 -0
v 3 18 -0
v -1 18 -1
v 1 18 -1
v 3 18 -1
v -2 19 -0
v -1 19 -0
v -2 19 -1
v -1 19 -1
v -3 22 -0
v -2 22 -0
v -3 22 -1
v -2 22 -1
v -5 23 -0
v -3 23 -0
v -5 23 -1
v -3 23 -1

# faces
f 3/5/1 2/5/1 1/5/1
f 4/5/1 2/5/1 3/5/1
f 7/5/1 6/5/1 5/5/1
f 8/5/1 6/5/1 7/5/1
f 11/5/1 10/5/1 9/5/1
f 12/5/1 10/5/1 11/5/1
f 13/2/1 12/2/1 11/2/1
f 14/2/1 12/2/1 13/2/1
f 17/2/1 16/2/1 15/2/1
f 18/2/1 16/2/1 17/2/1
f 19/5/1 18/5/1 17/5/1
f 20/5/1 18/5/1 19/5/1
f 23/2/1 22/2/1 21/2/1
f 24/2/1 22/2/1 23/2/1
f 25/5/1 24/5/1 23/5/1
f 26/5/1 24/5/1 25/5/1
f 29/3/1 28/3/1 27/3/1
f 30/3/1 28/3/1 29/3/1
f 33/5/1 32/5/1 31/5/1
f 34/5/1 32/5/1 33/5/1
f 35/2/1 34/2/1 33/2/1
f 36/2/1 34/2/1 35/2/1
f 39/1/1 38/1/1 37/1/1
f 40/1/1 38/1/1 39/1/1
f 42/1/1 38/1/1 40/1/1
f 44/1/1 42/1/1 41/1/1
f 45/1/1 38/1/1 42/1/1
f 45/1/1 42/1/1 44/1/1
f 46/1/1 38/1/1 45/1/1
f 47/1/1 44/1/1 43/1/1
f 48/1/1 44/1/1 47/1/1
f 51/1/1 50/1/1 49/1/1
f 51/1/1 49/1/1 48/1/1
f 52/1/1 50/1/1 51/1/1
f 54/1/1 50/1/1 52/1/1
f 55/1/1 54/1/1 53/1/1
f 56/1/1 50/1/1 54/1/1
f 56/1/1 54/1/1 55/1/1
f 59/4/1 58/4/1 57/4/1
f 60/4/1 58/4/1 59/4/1
f 63/1/1 62/1/1 61/1/1
f 64/1/1 62/1/1 63/1/1
f 67/4/1 66/4/1 65/4/1
f 68/4/1 66/4/1 67/4/1
f 69/5/2 70/5/2 71/5/2
f 71/5/2 70/5/2 72/5/2
f 73/5/2 74/5/2 75/5/2
f 75/5/2 74/5/2 76/5/2
f 77/5/2 78/5/2 79/5/2
f 79/5/2 78/5/2 80/5/2
f 79/2/2 80/2/2 81/2/2
f 81/2/2 80/2/2 82/2/2
f 83/2/2 84/2/2 85/2/2
f 85/2/2 84/2/2 86/2/2
f 85/5/2 86/5/2 87/5/2
f 87/5/2 86/5/2 88/5/2
f 89/2/2 90/2/2 91/2/2
f 91/2/2 90/2/2 92/2/2
f 93/2/2 94/2/2 95/2/2
f 95/2/2 94/2/2 96/2/2
f 97/1/2 98/1/2 99/1/2
f 99/1/2 98/1/2 100/1/2
f 100/1/2 101/1/2 103/1/2
f 102/1/2 103/1/2 104/1/2
f 103/1/2 101/1/2 105/1/2
f 104/1/2 103/1/2 105/1/2
f 106/1/2 107/1/2 108/1/2
f 108/1/2 107/1/2 109/1/2
f 109/1/2 107/1/2 111/1/2
f 111/1/2 107/1/2 112/1/2
f 110/1/2 111/1/2 113/1/2
f 113/1/2 111/1/2 114/1/2
f 115/4/2 116/4/2 117/4/2
f 117/4/2 116/4/2 118/4/2
f 119/1/2 120/1/2 121/1/2
f 121/1/2 120/1/2 122/1/2
f 122/1/2 120/1/2 124/1/2
f 123/1/2 124/1/2 125/1/2
f 124/1/2 120/1/2 126/1/2
f 125/1/2 124/1/2 126/1/2
f 127/4/2 128/4/2 129/4/2
f 129/4/2 128/4/2 130/4/2
f 131/1/2 132/1/2 133/1/2
f 133/1/2 132/1/2 134/1/2
f 135/1/2 136/1/2 137/1/2
f 137/1/2 136/1/2 138/1/2
f 139/1/2 140/1/2 141/1/2
f 141/1/2 140/1/2 142/1/2
f 143/3/2 144/3/2 145/3/2
f 145/3/2 144/3/2 146/3/2
f 147/1/2 148/1/2 149/1/2
f 149/1/2 148/1/2 150/1/2
f 151/1/2 152/1/2 153/1/2
f 153/1/2 152/1/2 154/1/2
f 157/1/3 156/1/3 155/1/3
f 158/1/3 156/1/3 157/1/3
f 164/3/3 160/3/3 159/3/3
f 165/3/3 160/3/3 164/3/3
f 169/1/3 162/1/3 161/1/3
f 170/1/3 162/1/3 169/1/3
f 171/1/3 164/1/3 163/1/3
f 172/1/3 164/1/3 171/1/3
f 173/1/3 166/1/3 165/1/3
f 174/1/3 166/1/3 173/1/3
f 175/1/3 168/1/3 167/1/3
f 176/1/3 168/1/3 175/1/3
f 177/1/3 164/1/3 172/1/3
f 178/1/3 164/1/3 177/1/3
f 179/1/3 173/1/3 165/1/3
f 180/1/3 173/1/3 179/1/3
f 185/5/3 182/5/3 181/5/3
f 186/5/3 182/5/3 185/5/3
f 191/5/3 184/5/3 183/5/3
f 192/5/3 184/5/3 191/5/3
f 193/5/3 187/5/3 186/5/3
f 194/2/3 188/2/3 187/2/3
f 194/5/3 187/5/3 193/5/3
f 195/2/3 188/2/3 194/2/3
f 200/2/3 190/2/3 189/2/3
f 201/5/3 191/5/3 190/5/3
f 201/2/3 190/2/3 200/2/3
f 202/5/3 191/5/3 201/5/3
f 203/2/3 196/2/3 195/2/3
f 204/5/3 197/5/3 196/5/3
f 204/2/3 196/2/3 203/2/3
f 209/5/3 199/5/3 198/5/3
f 209/2/3 200/2/3 199/2/3
f 210/2/3 200/2/3 209/2/3
f 211/5/3 197/5/3 204/5/3
f 213/1/3 206/1/3 205/1/3
f 214/1/3 206/1/3 213/1/3
f 215/1/3 208/1/3 207/1/3
f 216/1/3 208/1/3 215/1/3
f 218/5/3 209/5/3 198/5/3
f 219/5/3 211/5/3 204/5/3
f 220/4/3 212/4/3 211/4/3
f 220/5/3 211/5/3 219/5/3
f 220/4/3 213/4/3 212/4/3
f 221/4/3 213/4/3 220/4/3
f 222/4/3 213/4/3 221/4/3
f 223/4/3 218/4/3 217/4/3
f 223/4/3 217/4/3 216/4/3
f 224/4/3 218/4/3 223/4/3
f 225/5/3 209/5/3 218/5/3
f 225/4/3 218/4/3 224/4/3
f 226/5/3 209/5/3 225/5/3
f 227/1/3 221/1/3 220/1/3
f 227/1/3 220/1/3 219/1/3
f 228/1/3 221/1/3 227/1/3
f 229/1/3 226/1/3 225/1/3
f 229/1/3 225/1/3 224/1/3
f 230/1/3 226/1/3 229/1/3
f 231/1/3 227/1/3 219/1/3
f 232/1/3 227/1/3 231/1/3
f 233/1/3 226/1/3 230/1/3
f 234/1/3 226/1/3 233/1/3
f 235/1/4 236/1/4 237/1/4
f 237/1/4 236/1/4 238/1/4
f 239/3/4 240/3/4 241/3/4
f 241/3/4 240/3/4 242/3/4
f 241/1/4 242/1/4 243/1/4
f 243/1/4 242/1/4 244/1/4
f 245/3/4 246/3/4 247/3/4
f 247/3/4 246/3/4 248/3/4
f 249/5/4 250/5/4 253/5/4
f 253/5/4 250/5/4 254/5/4
f 251/5/4 252/5/4 259/5/4
f 259/5/4 252/5/4 260/5/4
f 254/5/4 255/5/4 261/5/4
f 255/2/4 256/2/4 262/2/4
f 261/5/4 255/5/4 262/5/4
f 262/2/4 256/2/4 263/2/4
f 257/2/4 258/2/4 268/2/4
f 258/5/4 259/5/4 269/5/4
f 268/2/4 258/2/4 269/2/4
f 269/5/4 259/5/4 270/5/4
f 263/2/4 264/2/4 271/2/4
f 264/5/4 265/5/4 272/5/4
f 271/2/4 264/2/4 272/2/4
f 266/5/4 267/5/4 277/5/4
f 267/2/4 268/2/4 277/2/4
f 277/2/4 268/2/4 278/2/4
f 272/5/4 265/5/4 279/5/4
f 273/1/4 274/1/4 280/1/4
f 280/1/4 274/1/4 281/1/4
f 281/1/4 274/1/4 282/1/4
f 282/1/4 274/1/4 283/1/4
f 275/1/4 276/1/4 284/1/4
f 284/1/4 276/1/4 285/1/4
f 285/1/4 276/1/4 286/1/4
f 286/1/4 276/1/4 287/1/4
f 266/5/4 277/5/4 288/5/4
f 272/5/4 279/5/4 289/5/4
f 279/4/4 280/4/4 290/4/4
f 289/5/4 279/5/4 290/5/4
f 280/4/4 281/4/4 290/4/4
f 290/4/4 281/4/4 291/4/4
f 291/4/4 281/4/4 292/4/4
f 282/1/4 283/1/4 293/1/4
f 283/1/4 284/1/4 293/1/4
f 284/1/4 285/1/4 293/1/4
f 293/1/4 285/1/4 294/1/4
f 287/4/4 288/4/4 295/4/4
f 286/4/4 287/4/4 295/4/4
f 295/4/4 288/4/4 296/4/4
f 288/5/4 277/5/4 297/5/4
f 296/4/4 288/4/4 297/4/4
f 297/5/4 277/5/4 298/5/4
f 290/1/4 291/1/4 299/1/4
f 289/1/4 290/1/4 299/1/4
f 299/1/4 291/1/4 300/1/4
f 297/1/4 298/1/4 301/1/4
f 296/1/4 297/1/4 301/1/4
f 301/1/4 298/1/4 302/1/4
f 289/1/4 299/1/4 303/1/4
f 303/1/4 299/1/4 304/1/4
f 302/1/4 298/1/4 305/1/4
f 305/1/4 298/1/4 306/1/4
f 309/5/5 308/5/5 307/5/5
f 310/5/5 308/5/5 309/5/5
f 313/5/5 312/5/5 311/5/5
f 314/5/5 312/5/5 313/5/5
f 317/2/5 316/2/5 315/2/5
f 318/2/5 316/2/5 317/2/5
f 322/5/5 320/5/5 319/5/5
f 323/1/5 321/1/5 320/1/5
f 323/5/5 320/5/5 322/5/5
f 324/1/5 321/1/5 323/1/5
f 327/1/5 326/1/5 325/1/5
f 328/1/5 327/1/5 325/1/5
f 329/1/5 327/1/5 328/1/5
f 332/1/5 331/1/5 330/1/5
f 333/1/5 331/1/5 332/1/5
f 336/1/5 335/1/5 334/1/5
f 337/1/5 335/1/5 336/1/5
f 341/1/5 339/1/5 338/1/5
f 342/1/5 339/1/5 341/1/5
f 343/1/5 339/1/5 342/1/5
f 344/1/5 339/1/5 343/1/5
f 345/3/5 341/3/5 340/3/5
f 346/3/5 341/3/5 345/3/5
f 347/3/5 343/3/5 342/3/5
f 348/3/5 343/3/5 347/3/5
f 351/1/5 350/1/5 349/1/5
f 352/1/5 350/1/5 351/1/5
f 355/1/5 354/1/5 353/1/5
f 356/1/5 354/1/5 355/1/5
f 358/4/5 357/4/5 356/4/5
f 359/4/5 357/4/5 358/4/5
f 362/1/5 361/1/5 360/1/5
f 363/1/5 361/1/5 362/1/5
f 368/5/5 365/5/5 364/5/5
f 369/5/5 365/5/5 368/5/5
f 370/1/5 367/1/5 366/1/5
f 371/1/5 367/1/5 370/1/5
f 374/2/5 373/2/5 372/2/5
f 375/2/5 373/2/5 374/2/5
f 378/5/5 377/5/5 376/5/5
f 379/5/5 377/5/5 378/5/5
f 380/5/6 381/5/6 382/5/6
f 382/5/6 381/5/6 383/5/6
f 384/2/6 385/2/6 386/2/6
f 386/2/6 385/2/6 387/2/6
f 388/5/6 389/5/6 392/5/6
f 392/5/6 389/5/6 393/5/6
f 390/1/6 391/1/6 394/1/6
f 394/1/6 391/1/6 395/1/6
f 396/1/6 397/1/6 398/1/6
f 398/1/6 397/1/6 399/1/6
f 400/1/6 401/1/6 402/1/6
f 402/1/6 401/1/6 403/1/6
f 403/4/6 404/4/6 405/4/6
f 405/4/6 404/4/6 406/4/6
f 407/1/6 408/1/6 409/1/6
f 409/1/6 408/1/6 410/1/6
f 411/1/6 412/1/6 414/1/6
f 414/1/6 412/1/6 415/1/6
f 415/1/6 412/1/6 416/1/6
f 416/1/6 412/1/6 417/1/6
f 413/3/6 414/3/6 418/3/6
f 418/3/6 414/3/6 419/3/6
f 415/3/6 416/3/6 420/3/6
f 420/3/6 416/3/6 421/3/6
f 422/1/6 423/1/6 424/1/6
f 424/1/6 423/1/6 425/1/6
f 426/1/6 427/1/6 428/1/6
f 428/1/6 427/1/6 429/1/6
f 430/1/6 431/1/6 432/1/6
f 430/1/6 432/1/6 433/1/6
f 433/1/6 432/1/6 434/1/6
f 435/5/6 436/5/6 438/5/6
f 436/1/6 437/1/6 439/1/6
f 438/5/6 436/5/6 439/5/6
f 439/1/6 437/1/6 440/1/6
f 441/2/6 442/2/6 443/2/6
f 443/2/6 442/2/6 444/2/6
f 445/5/6 446/5/6 447/5/6
f 447/5/6 446/5/6 448/5/6
f 449/5/6 450/5/6 451/5/6
f 451/5/6 450/5/6 452/5/6
